# xmcd
#
# Track frame offsets:
#	150
#	27887
#	43452
#	56900
#	72042
#	92105
#	113405
#	126415
#	151370
#	169267
#
# Disc length: 3038 seconds
#
# Revision: 0
# Processed by: cddbd v1.4b42PL0 Copyright (c) Steve Scherf et al.
# Submitted via: EasyCDDAExtractor 4.5.0.1
#
DISCID=890bdc0a
DTITLE=The Tractors - Farmers In A Changing World
DYEAR=1900
DGENRE=country
TTITLE0=I Woulden't Tell You A Lie
TTITLE1=Linda Lou
TTITLE2=How Long Will It Take
TTITLE3=Shortenin' Bread
TTITLE4=The Worlds Biggest Fool
TTITLE5=Poor Boy Shuffle
TTITLE6=The Elvis Thing
TTITLE7=Mystery Train
TTITLE8=Way Too Late
TTITLE9=Foot Stomp Stompin'
EXTD=
EXTT0=
EXTT1=
EXTT2=
EXTT3=
EXTT4=
EXTT5=
EXTT6=
EXTT7=
EXTT8=
EXTT9=
PLAYORDER=
